<?xml version="1.0" encoding="utf-8"?>
<!-- Generator: Adobe Illustrator 16.0.2, SVG Export Plug-In . SVG Version: 6.00 Build 0)  -->
<!DOCTYPE svg PUBLIC "-//W3C//DTD SVG 1.1//EN" "http://www.w3.org/Graphics/SVG/1.1/DTD/svg11.dtd">
<svg version="1.1" id="Layer_1" xmlns="http://www.w3.org/2000/svg" xmlns:xlink="http://www.w3.org/1999/xlink" x="0px" y="0px"
	 width="612px" height="612px" viewBox="0 90 612 612" enable-background="new 0 90 612 612" xml:space="preserve">
<circle fill="#E3411F" cx="306" cy="396" r="306"/>
<g>
	<path fill="#FFFFFF" d="M316.2,418.95c-8.925-6.375-25.5-21.675-25.5-29.325c0-10.2,2.55-15.3,17.85-28.05
		s26.775-29.325,26.775-49.725c0-24.225-10.2-47.175-30.601-56.1h30.601L357,240.45h-95.625c-43.35,0-84.15,33.15-84.15,70.125
		c0,38.25,29.325,70.125,72.675,70.125c2.55,0,6.375,0,8.925,0c-2.55,5.1-5.1,11.475-5.1,17.85c0,10.2,6.375,19.125,12.75,26.775
		c-5.1,0-11.475,0-16.575,0c-53.55,0-94.35,34.425-94.35,68.85s44.625,56.101,98.175,56.101c61.2,0,94.35-34.426,94.35-68.851
		C349.35,454.65,341.7,436.8,316.2,418.95z M263.925,371.775c-24.225-1.275-48.45-28.05-52.275-59.925
		c-3.825-33.15,12.75-57.375,36.975-56.1s48.45,26.775,52.275,59.925C306,346.275,289.425,371.775,263.925,371.775z M255,536.25
		c-36.975,0-63.75-22.95-63.75-51s33.15-51,70.125-49.725c8.925,0,16.575,1.274,24.225,3.824c20.4,14.025,34.425,21.676,38.25,38.25
		c1.275,3.825,1.275,6.375,1.275,10.2C325.125,513.3,306,536.25,255,536.25z"/>
	<polygon fill="#FFFFFF" points="418.2,374.325 418.2,337.35 387.6,337.35 387.6,374.325 350.625,374.325 350.625,403.65 
		387.6,403.65 387.6,441.9 418.2,441.9 418.2,403.65 455.175,403.65 455.175,374.325 	"/>
</g>
</svg>
